# xmcd
#
# Track frame offsets:
#	150
#	17875
#	37546
#	48900
#	67429
#	82771
#	104008
#	125848
#	140592
#	155807
#	174179
#	193880
#	205037
#	220810
#	236880
#	250307
#	267488
#	280415
#	295181
#	313700
#
# Disc length: 4362 seconds
#
# Revision: 0
# Processed by: cddbd v1.5.2PL0 Copyright (c) Steve Scherf et al.
# Submitted via: EasyCDDAExtractor 16.0.8.2
#
DISCID=38110814
DTITLE=Συλλογικός δίσκος - Άρωμα Σμύρνης 3
DYEAR=2004
DGENRE=Παραδοσιακή
TTITLE0=Ξηρού Κατερίνα - Μανές καληνυχτιάς (καλής νύχτας)[παραδ.]
TTITLE1=Τζώρτζης Γιώργος - Τούτο το καλοκαιράκι [παραδοσιακό]
TTITLE2=Μαμμάση Αλεξάνδρα - Μαρίτσα [παραδοσιακό]
TTITLE3=Άνευ ερμηνευτού - Μπέϊκος [παραδοσιακό]
TTITLE4=Ιακωβίδης Αγάθωνας - Μανάκι μου [παραδοσιακό]
TTITLE5=Ραζέλη Αφεντούλα - Τράβα ρε μάγκα [Κώστας Σκαρβέλλης]
TTITLE6=Τσέρτος Μπάμπης - Γεωργίτσα [παραδοσιακό]
TTITLE7=Άνευ ερμηνευτού - Πολίτικο συρτό [παραδοσιακό]
TTITLE8=Ζυγομαλάς Χρήστος - Ο Γιάνναρος [παραδοσιακό]
TTITLE9=Άνευ ερμηνευτού - Απτάλικος [παραδοσιακό]
TTITLE10=Σαραγούδα Γιασεμή - Χορεύεις χαϊδεμένη μου [Ευάγγ. Παπάζογλου]
TTITLE11=Άνευ ερμηνευτού - Μελεμένιο [παραδοσιακό, Κουλαξίδης Λάζ.]
TTITLE12=Βουτυράς Κώστας - Κούκλα μου εσύ [παραδοσιακό]
TTITLE13=Γονή Διατσέντα - Τζιβαέρι [παραδοσιακό]
TTITLE14=Άνευ ερμηνευτού - Έχε γεια Παναγιά [παραδοσιακό]
TTITLE15=Ραζέλη Αφεντούλα - Αραμπάς περνά [παραδοσιακό]
TTITLE16=Βουτυράς Κώστας - Έχασα μαντήλι [παραδοσιακό]
TTITLE17=Άνευ ερμηνευτού - Σέρβικο πολίτικο [παραδοσιακό]
TTITLE18=Ζυγομαλάς Χρήστος - Από κάτω απ' τις ντομάτες [παραδοσιακό]
TTITLE19=Χορωδία - Δε σε θέλω πια [ηχογραφηση του 1911, παραδ.]
EXTD=
EXTT0=
EXTT1=
EXTT2=
EXTT3=
EXTT4=
EXTT5=
EXTT6=
EXTT7=
EXTT8=
EXTT9=
EXTT10=
EXTT11=
EXTT12=
EXTT13=
EXTT14=
EXTT15=
EXTT16=
EXTT17=
EXTT18=
EXTT19=
PLAYORDER=
